<svg xmlns="http://www.w3.org/2000/svg" xmlns:xlink="http://www.w3.org/1999/xlink" id="s" x="0" y="0" enable-background="new 0 0 1100 1800" version="1.1" viewBox="0 0 1100 1800" xml:space="preserve"><style type="text/css">.st0,.st1{fill-rule:evenodd;clip-rule:evenodd;fill:url(#s2_1_)}.st1{fill:url(#s1_1_)}</style><image id="Background_copy" width="1100" height="1800" display="none" enable-background="new" overflow="visible" transform="matrix(1 0 0 1 0 -6.728310e-06)" xlink:href="4C1436AE.png"/><g id="backup"><linearGradient id="s2_1_" x1="1259.354" x2="170.675" y1="96.622" y2="1885.301" gradientUnits="userSpaceOnUse"><stop offset=".227" stop-color="#FFBD24"/><stop offset=".873" stop-color="#F79423"/></linearGradient><path id="s2_3_" d="M318.3,1437.5c-20.5-22.2,158,163,170,175c295.3,260.7,689.4-128,424-424c-12-12-115.5-117-231-227 c-124.4-122.4-180.4-178.4-222-220c-179.1-191.1,93-463,282-282c41.6,41.6,234.4,241,175,180c-227.7-139-423.2,133.8-235,322 C1006.2,1286.3,589.7,1647.7,318.3,1437.5z" class="st0"/><linearGradient id="s1_1_" x1="937.637" x2="-152.929" y1="-97.371" y2="1693.195" gradientUnits="userSpaceOnUse"><stop offset="0" stop-color="#D83C17"/><stop offset="1" stop-color="#E51A1D"/></linearGradient><path id="s1_3_" d="M782,363c20.5,22.2-158-163-170-175C316.7-72.8-77.4,316,188,612c12,12,115.5,117,231,227 c124.4,122.4,180.4,178.4,222,220c179.1,191.1-93,463-282,282c-41.6-41.6-234.4-241-175-180c227.7,139,423.2-133.8,235-322 C94.2,514.2,510.6,152.8,782,363z" class="st1"/></g></svg>