<?xml version="1.0" encoding="utf-8"?>
<!-- Generator: Adobe Illustrator 24.0.0, SVG Export Plug-In . SVG Version: 6.00 Build 0)  -->
<svg version="1.1" id="s" xmlns="http://www.w3.org/2000/svg" xmlns:xlink="http://www.w3.org/1999/xlink" x="0px" y="0px"
	 viewBox="0 0 1100 1800" style="enable-background:new 0 0 1100 1800;" xml:space="preserve">
<style type="text/css">
	.st0{fill-rule:evenodd;clip-rule:evenodd;fill:url(#s2_1_);}
	.st1{fill-rule:evenodd;clip-rule:evenodd;fill:url(#s1_1_);}
</style>
<image style="display:none;overflow:visible;enable-background:new    ;" width="1100" height="1800" id="Background_copy" xlink:href="4C1436AE.png"  transform="matrix(1 0 0 1 0 -6.728310e-06)">
</image>
<g id="backup">
	<linearGradient id="s2_1_" gradientUnits="userSpaceOnUse" x1="1259.3545" y1="96.6218" x2="170.6752" y2="1885.3011">
		<stop  offset="0.2269" style="stop-color:#FFBD24"/>
		<stop  offset="0.8732" style="stop-color:#F79423"/>
	</linearGradient>
	<path id="s2_3_" class="st0" d="M318.3,1437.5c-20.5-22.2,158,163,170,175c295.3,260.7,689.4-128,424-424c-12-12-115.5-117-231-227
		c-124.4-122.4-180.4-178.4-222-220c-179.1-191.1,93-463,282-282c41.6,41.6,234.4,241,175,180c-227.7-139-423.2,133.8-235,322
		C1006.2,1286.3,589.7,1647.7,318.3,1437.5z"/>
	<linearGradient id="s1_1_" gradientUnits="userSpaceOnUse" x1="937.637" y1="-97.3712" x2="-152.929" y2="1693.1948">
		<stop  offset="0" style="stop-color:#D83C17"/>
		<stop  offset="1" style="stop-color:#E51A1D"/>
	</linearGradient>
	<path id="s1_3_" class="st1" d="M782,363c20.5,22.2-158-163-170-175C316.7-72.8-77.4,316,188,612c12,12,115.5,117,231,227
		c124.4,122.4,180.4,178.4,222,220c179.1,191.1-93,463-282,282c-41.6-41.6-234.4-241-175-180c227.7,139,423.2-133.8,235-322
		C94.2,514.2,510.6,152.8,782,363z"/>
</g>
</svg>
