<svg xmlns="http://www.w3.org/2000/svg" width="4434.667" height="4434.667" version="1" viewBox="0 0 3326 3326"><path d="M1326.7.6c-.1.1-5.6.5-12.2.9-6.6.3-13.3.8-15 1-1.6.2-6.2.6-10.1 1-3.9.3-8 .7-9.1.9-1.1.3-4.4.7-7.3 1.1-2.9.4-6 .8-6.9 1-.9.1-3.7.6-6.3.9-4.4.6-22.1 3.8-27.8 5-1.4.3-3.4.8-4.5 1-1.1.2-7.2 1.6-13.5 3.1s-12.6 2.9-13.9 3.1c-1.4.3-2.8.7-3.3 1-.4.3-1.6.7-2.5.9-6 1.2-37.1 11.2-52.8 16.9-13.7 4.9-38.6 15.7-55.8 24-64 31.2-123.9 74-174.6 124.7-12.6 12.6-30.1 31.5-36.6 39.6-1.1 1.4-3 3.7-4.3 5.2-3.3 3.7-21 26.6-25.7 33.1-2.2 3-4.2 5.7-4.5 6-2.1 1.9-27.7 41.8-30.8 48-.7 1.4-2.6 4.7-4.3 7.5-6.2 10-23.2 44.1-30.4 61-3 7.1-6.3 15.2-7.3 18-.6 1.6-1.7 4.3-2.3 6-.7 1.6-1.3 3.2-1.4 3.5-.1.3-.4 1.2-.8 2-.3.8-1.5 4.4-2.7 8-1.2 3.6-2.5 7.2-2.9 8-.7 1.3-7.6 23.5-8.7 27.8-.2.9-2.4 9.5-4.9 19.1-2.4 9.6-4.7 18.9-5 20.7-.2 1.9-.9 5.4-1.5 7.9s-1.3 6.2-1.6 8.1c-.3 2-.8 4.6-1 5.8-.3 1.1-.7 4.1-1 6.5-.2 2.4-.6 4.6-.8 5-.2.3-.7 3.5-1.1 7.1-.4 3.6-.8 7.2-1 8-.3 1.4-1.3 9.8-2.1 17.5-2.6 25-2.6 88.7.1 109 .2 1.6.7 5.9 1 9.4.9 9.2 1.6 14 3.2 23.6.2 1.6.6 3.9.8 5 .5 4.1 1.5 10.2 2 12.5.3 1.4.7 3.6 1 5 .3 1.4.7 3.6 1 5 .3 1.4.8 4.1 1.2 6 .4 1.9.8 3.7.8 4 .1.3.4 1.8.8 3.5.4 1.6.9 3.9 1.1 5 .8 3.6 7.6 29.9 8.7 33 .5 1.6 2.9 9.1 5.4 16.5 2.4 7.4 6 18 8.1 23.5 2 5.5 4.3 11.8 5.1 14 .8 2.2 1.8 4.4 2.2 5 .5.5 1.4 2.8 2.1 4.9.7 2.2 2.7 7.1 4.5 11 1.8 3.9 4.7 10.2 6.5 14.1 11.4 24.9 30.1 58.8 44.9 81.5 3 4.7 6 9.3 6.6 10.2 5.3 8.7 37.2 52.6 40.5 55.8.3.3 4.6 5.4 9.5 11.5 4.9 6 9.4 11.5 10 12.1.5.6 3.3 3.7 6 7 2.8 3.2 48.5 49.3 101.6 102.4 93.9 93.9 123.2 122.8 193.5 191.7 45.5 44.5 47.1 46 107.4 104.3 4.8 4.7 17.4 16.8 28.1 27 23 22.1 26.9 25.8 38.9 37.5 11.6 11.3 10.6 9.1-1.6-3.5-5-5.2-10.4-10.9-11.9-12.5-4.3-4.8-15.4-17.1-17.3-19.3-.9-1-3.9-4.5-6.7-7.7-2.7-3.2-5.5-6.3-6.1-6.9-3.1-3.2-30.4-37.9-39.1-49.6-12.3-16.5-26.3-36.8-26.3-38 0-.4-.4-1-.8-1.2-.9-.4-15.7-23.5-23.1-36.3-2.9-5-5.7-9.7-6.2-10.5-.5-.8-1.6-2.9-2.4-4.5-.9-1.7-2.5-4.6-3.7-6.5-5.8-9.7-24.3-47.4-31-63.4-1.7-3.9-3.6-8.5-4.3-10.1-9.5-21.9-27.5-76.7-31.1-95-.2-1.1-.6-2.9-.9-4-.7-3.1-6.4-30.6-7-34.5-.9-4.7-1.2-6.7-2-12.5-.3-2.8-.8-6.1-1.1-7.5-.6-3.3-1.1-8-2-16-.3-3.6-.8-7.9-1-9.5-2.7-24.3-3.1-65.1-.9-93 1.3-16.1 1.2-15 3-30.5 1.3-10.9 4.8-31.7 6.9-41.5.3-1.1 1.1-5.2 2-9 1.6-7.5 5.7-23.6 7.6-29.9.6-2.1 1.3-4.6 1.5-5.5.2-.9 1.3-4.5 2.5-8.1 1.2-3.6 2.3-7.2 2.5-8 .2-.8 1.7-5.4 3.4-10.2 2.6-7.3 5.1-13.6 14.6-37.3 6.6-16.6 23.6-49.7 35.9-70.2 10.9-18.3 39.3-59.4 43.6-63.3.3-.3 1.7-2.1 3.1-4 1.5-1.9 3.7-4.6 4.9-6 1.2-1.4 3.6-4.2 5.3-6.4 17.8-21.8 57.1-61 79.5-79.2 1.3-1 3.6-2.9 5-4.2 1.5-1.2 5.2-4.2 8.2-6.5 3-2.3 5.7-4.5 6-4.8 3.4-3.9 49.1-35.1 66-45 4.7-2.8 9.2-5.4 10-6 .8-.5 6.7-3.7 13-7.2 47.2-25.8 101.3-47 153.8-60.1 10.1-2.5 19.8-4.8 21.5-5.1 1.8-.3 3.9-.8 4.7-1 .8-.2 3.2-.6 5.4-1 2.1-.3 4.2-.7 4.6-1 .4-.2 2.5-.7 4.6-1 2.1-.2 4.8-.6 5.9-.9 2.2-.4 9.5-1.6 13.5-2.1 1.4-.2 4.3-.6 6.5-1 2.2-.3 5.9-.8 8.3-1 2.3-.3 6.1-.7 8.5-1 36.7-4.5 85.2-4.9 124.2-1.1 13.2 1.3 18.9 2 25.5 3.1.8.2 4 .6 7 1s6.4.9 7.5 1.1c1.1.2 4.5.8 7.5 1.4 3 .5 6.6 1.1 8 1.4 1.3.3 4.2.8 6.3 1.1 2.2.4 5 1 6.3 1.5 1.3.5 2.4.8 2.4.6 0-.2 8.4 1.8 18.8 4.5 10.3 2.7 19.6 5.1 20.7 5.4 3 .7 35.7 11.5 38 12.5 1.1.5 8.8 3.6 17 6.8 29.6 11.8 57.5 25.6 86.5 43 13.9 8.3 39.5 25.2 48 31.7 10.6 8.1 11.4 7.8 2.8-1.1-4.8-4.9-15.4-15.7-23.5-24.1-8.1-8.4-23.1-23.8-33.3-34.3-10.2-10.5-22.8-23.5-28-28.9-14.3-14.8-50.6-52.2-62.1-64.1-9.9-10.4-44.4-46-60.9-63-4.7-4.8-18.2-18.8-30-31-11.8-12.3-25.8-26.7-31-32.1-5.2-5.3-19.2-19.7-31-31.9-31.8-32.8-41.9-42.9-48.4-48.5-3.2-2.8-6.4-5.5-7-6-1.8-1.8-23-18.8-26.6-21.5-1.8-1.4-5.4-4.1-7.9-6.1-20.7-16.1-57.6-40.4-84.5-55.7-8.7-4.9-49.9-25.8-55.6-28.1-1.9-.8-6.4-2.8-10-4.4-14-6.3-47.7-18.6-65-23.7-4.1-1.2-8.6-2.6-10-3.1-8.9-3.1-50.2-12.7-62-14.4-2.5-.3-6.3-1-8.5-1.5s-6.5-1.1-9.5-1.5c-3-.3-6.2-.8-7-1-.8-.2-4.4-.7-8-1-3.6-.4-7.6-.8-9-1-1.4-.2-5.9-.7-10-1-4.1-.3-10.2-.8-13.5-1.1-5.7-.6-63.2-1.3-63.8-.8z"/><path d="M1770.8 620.5c-.2.2-6.1.5-13.3.9-12.6.6-19.3 1.1-26.5 2-1.9.2-6 .7-9 1.1-3 .3-7.7 1-10.5 1.5-2.7.5-6.3 1.2-8 1.5-6.9 1.2-9.6 1.7-21 4.6-12.4 3.1-32.4 9-38.5 11.4-32.3 12.7-46.7 19.3-66 30-46.7 26.1-93.2 65.1-127 106.5-2.5 3-4.7 5.7-5 6-.3.3-1.8 2.3-3.5 4.5-1.6 2.2-3.1 4.2-3.5 4.5-2.7 2.5-21.7 30.9-28.4 42.5-3.1 5.5-6.1 10.7-6.7 11.5-1.5 2.5-15.2 30.1-17.8 36-5 11.8-15 38.8-16.6 45-.2.8-1.1 4-2 7-2 6.6-5.7 21.8-7 28-1.3 6.6-4.4 25.1-5 29.5-.3 2.7-.8 6.6-1 8.5-2.5 19.4-2.6 63-.1 82.5.2 1.6.7 5.7 1.1 9 .4 3.2.8 6.6 1 7.5.1.8.6 3.7 1 6.5.5 2.7.9 5.2 1 5.5.1.4.7 3.4 1.9 9.5 1.3 6.5 4.1 17.3 6.7 26.5 1.7 5.8 3.3 11.2 3.5 12 .8 3.7 9.9 27.7 13.1 35 3.4 7.4 10.5 22.6 11.7 25 11.2 21.3 24.1 42.3 37 60 4.9 6.9 9.3 12.7 9.6 13 .3.3 3.2 3.9 6.4 8 3.3 4.1 8.9 10.9 12.5 15 6.4 7.4 153.7 154.8 241.8 242 152.8 151 221.7 218.9 222.1 218.5.2-.2-1.6-2.3-4-4.8-8.5-8.8-13.5-14.3-20.8-23.2-4.1-5-7.7-9.2-8-9.5-.3-.3-1.7-2.1-3.2-4.2-1.5-2-3.3-4.2-4-5-3-3.2-7.8-9.8-7.8-10.7 0-.5-.4-1.1-.8-1.3-1.6-.7-18.3-25-27.1-39.6-10.3-17.2-10.8-18-21.5-39.7-10.1-20.5-18.7-40.8-24.1-57-1.5-4.4-2.9-8.7-3.2-9.5-.3-.8-.7-2-.8-2.6-.2-.6-1.4-4.8-2.8-9.5-2.3-7.8-3.8-13.8-3.9-15.6 0-.5-.4-1.5-.9-2.4-.4-.9-1.1-3.1-1.4-5-.3-1.9-1.2-6.3-2-9.9-1.7-7.7-4.2-21.8-5-28.6-.3-2.7-.8-5.8-1-6.9-.2-1.1-.7-5.8-1-10.5-.4-4.7-.9-9.6-1.2-11-.3-1.4-.5-14.2-.6-28.5-.1-22.9.2-30.7 1.9-47 .2-2.2.6-6 .8-8.5.9-9.4 5.7-34.1 9.7-49.5 4.7-18.7 4.4-17.4 5.3-20 2.5-6.6 3.4-9.1 3.5-9.8.1-.4.1-.8.2-1 0-.1.2-.9.4-1.7.8-4 14.6-37.5 18.9-46 10.6-21 26-47.2 31.3-53.5.5-.6 2.4-3.2 4.3-6 3.9-5.7 3-4.5 15.6-19.9 5.3-6.6 10.6-13 11.8-14.2 15.1-15.6 19.2-19.7 24.2-24.4 3.2-3 8.6-7.7 11.9-10.5 3.3-2.7 6.6-5.5 7.3-6.2 2.9-2.8 24.3-18.3 32.6-23.7 36.3-23.6 79.4-41.8 120.6-51.1 9.6-2.2 10.9-2.4 14.5-3 1.7-.3 5.3-1 8-1.5 6.7-1.3 10-1.8 16.5-2.5 3-.3 7.1-.7 9-1 16.8-2.3 61-2.3 78 0 1.9.2 6.2.7 9.5 1.1 7.8.8 9.1.9 15 1.8 4.6.7 6.7 1.1 12 2.1 1.1.2 4.7.8 8 1.4 4.8.9 38 9.1 42 10.5.6.1 1.7.5 2.5.8 13.2 4.2 34.4 11.5 37.5 12.8 2.2 1 5.6 2.3 7.5 3.1 14.5 5.3 52 23.6 68.4 33.3 4.3 2.5 8 4.6 8.2 4.6.3 0 3.3 1.8 6.7 4.1l6.2 4.1-9.7-9.9c-11.4-11.6-25.3-25.9-51.8-53.4-10.7-11.1-23.5-24.3-28.5-29.4-4.9-5.1-19.1-19.7-31.5-32.5-12.4-12.8-27.7-28.6-34-35-6.3-6.5-21.4-22-33.5-34.5-12.1-12.5-27.6-28.4-34.5-35.5-6.9-7.1-24.4-25.1-39-40-85.1-87.3-112.6-114.8-126-126-3-2.5-6.1-5.2-7-6-.9-.9-3.4-2.9-5.5-4.5-2.2-1.6-4.4-3.4-5-4-3.7-4-37.4-27.1-52.5-36-18.6-11-45.2-23.6-66-31.2-9-3.3-33.2-10.9-37.5-11.7-1.1-.3-5.1-1.2-9-2.1-3.8-.9-7.9-1.9-9-2.1-2-.5-15.4-2.7-22.7-3.8-2.1-.3-5.3-.8-7-1.1-5.5-.8-15.6-1.5-28.8-2.1-6.9-.2-14.2-.6-16.2-.8-2.1-.2-3.9-.2-4-.1z"/><path d="M2430.4 1124.9c2 2.2 2.6 2.5 2.6 1.3 0-.4-1-1.3-2.2-2.1-2.3-1.4-2.3-1.4-.4.8zM2440 1134.4c0 .2.8 1 1.8 1.7 1.5 1.3 1.6 1.2.3-.4s-2.1-2.1-2.1-1.3zM1383 1529.4c0 .2.7.7 1.6 1 .8.3 1.2.2.9-.4-.6-1-2.5-1.4-2.5-.6zM1403 1548.4c0 .5 2.6 3.6 5.9 7 3.2 3.3 7.8 8.3 10.1 11.1 2.4 2.7 4.6 5.2 4.9 5.5 1.4 1 20.8 25.7 28 35.5 7.7 10.5 22.4 32.5 25.7 38.5 1 1.9 2.2 3.6 2.7 3.8.4.2.7.8.7 1.4 0 .5.8 2.2 1.8 3.6 1.1 1.5 3.8 6.2 6.1 10.6 6.2 11.6 6.5 12 7.6 12.8.6.4.7.8.3.8-.4 0 1.5 4.4 4.1 9.7 4.3 8.5 6.5 13.5 12.6 27.8.7 1.6 2.3 5.7 3.5 9 1.2 3.3 2.6 6.9 3.1 8 .9 2 6.9 20.1 7.4 22 .1.5.5 1.7.8 2.5 1 2.5 5.5 19.2 6.2 22.9.3 1.9.8 3.8 1 4.2.5.7 3.1 12.4 4 18.1.3 1.8 1 5.8 1.6 8.8.6 3 1.2 6.6 1.4 8 .9 7.1 2.7 20.9 3 23.5 2.3 15.7 2.3 69.3 0 82.5-.2 1.4-.6 5.2-.9 8.5-.3 3.3-.8 6.9-1 8-.2 1.1-.7 4.5-1.1 7.5-.8 5.8-1.1 7.9-2 12-1.1 5.1-1.6 7.6-2 10-.2 1.4-1.2 5.4-2 9l-2 8c-.2.8-.4 1.5-.5 1.5-.1 0-.4 1.1-.7 2.5-.2 1.4-.6 2.9-.7 3.5-1.1 4.6-8.4 27.2-9.6 30-.4 1.1-3 7.4-5.5 14-4.3 10.9-19 42.3-20.4 43.5-.3.3-1.4 2.1-2.5 4-3.5 6.6-6.9 12.5-8.6 15-1 1.4-3.8 5.6-6.3 9.5-2.5 3.8-5.6 8.4-6.9 10.2-1.3 1.7-3 4.1-3.8 5.3-6.1 9-24.9 31-37.2 43.5-22.1 22.4-34.8 32.8-61.8 50.9-31.3 21-64.6 36.6-101 47.4-11.5 3.4-30.5 8-36 8.7-1.9.3-4.8.8-6.5 1.2-1.6.3-3.7.7-4.5.8-.8.1-3.3.5-5.5.8-4 .6-12.7 1.7-17.5 2.3-18.8 2.2-60 2.2-79.2 0-2.4-.3-6.5-.8-9.3-1.1-7.3-.7-13.6-1.5-16.5-2.1-1.4-.3-5.9-1.1-10-1.9-4.1-.7-8.6-1.6-10-1.9-1.4-.3-4.7-1-7.5-1.6-8.5-1.8-9.8-2.1-15.5-3.6-21.7-5.9-45.6-13.7-60-19.7-1.4-.6-2.7-1.1-3-1.2-1.2-.4-5.4-2.2-17-7.3-32.5-14.2-67.4-33.6-74.9-41.7-2.3-2.6-4.4-4.5-4.6-4.3-.2.2 6.5 7.3 14.8 15.9 12.8 13.1 41.7 43 68.7 70.8 3.6 3.7 17.5 18.1 31 32 13.5 13.9 28.8 29.7 34 35.1 5.2 5.4 20.5 21.1 34 35 13.5 13.8 28.5 29.3 33.3 34.3 8.7 9 46.8 48.1 87.7 89.9 36.9 37.8 74.4 75.4 80.5 80.9 12.7 11.3 15.5 13.6 25.9 21.9 34.8 27.6 69.7 48.2 109.1 64.5 8.5 3.5 35.8 12.9 40.7 14 1.3.2 5.9 1.4 10.3 2.5 9 2.3 30.6 6.6 37.5 7.4 2.5.3 6.3.8 8.5 1.1 5.1.7 13.4 1.5 21 2 8.5.6 40.7.5 48.5 0 13.1-1 15.6-1.2 21-2 3-.4 6.9-.9 8.5-1.1 1.7-.1 4.6-.6 6.5-.9 1.9-.4 4.4-.8 5.5-.9 1.1-.2 3.4-.6 5-1 4.1-.9 7.5-1.6 10.5-2.2 1.4-.3 5.2-1.2 8.5-2s7-1.7 8.3-1.9c1.2-.3 7.3-2.1 13.5-4 6.1-2 11.9-3.7 12.7-3.9 15.1-4.2 50.8-20.2 73-32.9 18.9-10.7 49.1-30.9 55.6-37.1.6-.6 2.9-2.5 5-4.1 27.5-21.5 60.3-55.9 82.2-86.3 7.1-9.9 22.9-33.7 23.9-36.2.4-.8 2.1-4 3.9-7 6.2-10.8 14.1-26.7 20.1-40.5 5.5-12.6 8.6-20.6 15.1-40 1.8-5.3 7.7-26.6 8.7-31.3 2.7-13.5 4.6-23.4 5-26.5.2-2.1.6-4.1.8-4.5.3-.4.8-3.9 1.1-7.8.4-3.9.9-8.2 1.1-9.4 2.3-11.8 2.3-63.8 0-79.5-1.4-9.9-2.5-18.1-2.6-19.5-.1-.8-.6-3.8-1.1-6.5-.5-2.8-1.1-6.1-1.4-7.5-.9-5-2.6-12.5-3.1-14-.4-.8-.6-1.8-.5-2.2.1-.4-1.7-6.9-3.9-14.5s-4.2-14.5-4.4-15.3c-1.6-5.8-8.6-23.8-15.7-40-2.5-5.8-13.1-27.3-13.8-28-.3-.3-1.6-2.5-2.9-5-5.4-9.9-23.1-38.1-25.1-40-.3-.3-2.7-3.5-5.3-7.2-2.6-3.6-5.3-7.2-5.9-8-.7-.7-3.3-4-5.8-7.3s-4.8-6.2-5.1-6.5c-.3-.3-3-3.4-6-7-2.9-3.5-7.4-8.7-9.9-11.4-6.3-7-125-125.5-216-215.6-78.1-77.4-83.7-82.9-171-169-27.6-27.2-54.7-54-60.1-59.4-5.5-5.5-9.9-9.6-9.9-9.2zM1942.7 1797.1c.7.7 1.5 1 1.8.7.3-.3-.2-.9-1.2-1.2-1.4-.6-1.5-.5-.6.5z"/><path d="M1951.7 1806.1c11.6 12.1 15.4 16.1 23.9 25.5 10.9 11.9 28.6 32.5 35.4 41 .8 1.1 4.2 5.3 7.5 9.4 7.6 9.4 19.1 24.6 28 37 10.8 15 36.7 54.3 41.1 62.5.6 1.1 2 3.6 3.2 5.5 1.2 1.9 3.3 5.5 4.6 8 1.4 2.5 3.9 7 5.6 10 5.4 9.7 21.9 42.8 26.6 53.3 11.5 25.7 25.8 64.3 32.3 87.2 2.1 7.5 7.1 26 7.6 28.5.2.8 1 4.5 1.9 8.3.9 3.7 1.8 8.2 2.1 10 .4 1.7 1 5 1.5 7.2.8 3.7 2.8 15.2 3.5 20 .4 2.6 1.4 9.2 2.1 12.8.4 2.8.7 4.8 1.8 15.7 2.5 24.1 2.9 33 3 60 .1 23.4-.6 42.1-1.8 53-.3 1.9-.7 6.2-1 9.5-.6 6.3-1 9.3-2.7 21-1.6 10.5-1.6 10.4-3.3 19.5-.8 4.7-1.7 9.4-1.9 10.5-1.6 9.3-11 45.4-14.4 55.5-.9 2.5-1.6 4.9-1.7 5.5-.2 1.2-5.4 16.2-6.7 19-.4 1.1-2.2 5.8-4 10.5-11.9 32-32.6 72.5-54.4 106.5-10.7 16.7-34.7 49.1-46 62-1.4 1.6-4.7 5.5-7.3 8.5-16.1 18.8-46.1 48.5-68.7 67.9-29.6 25.3-73.1 55.3-110 75.6-7 3.9-36.8 18.8-43.5 21.8-1.9.8-6.2 2.8-9.5 4.2-8.2 3.7-34.1 14-39 15.5-2.2.7-4.4 1.5-5 1.9-.5.3-1.2.6-1.5.6-.3.1-8.4 2.7-18 5.8-21.3 6.9-45.7 13.4-64.1 17.1-8 1.6-24.2 4.6-27.5 5-2.1.3-4.8.7-5.9.9-1.1.3-4.2.8-7 1.1-20.3 2.6-20.2 2.6-37 4.1-26.6 2.3-68.8 2.3-96.5 0-9.8-.8-24-2.3-28.5-3-1.6-.3-4.8-.7-7-1-2.2-.3-5.3-.8-7-1-1.6-.3-4.1-.7-5.5-.9-4-.6-20.5-3.7-28-5.2-1.4-.3-9-2.1-17-4.1-8-1.9-14.9-3.6-15.5-3.7-5.5-1.2-49.8-15.7-55-18.1-1.6-.7-5.9-2.4-9.5-3.8-25.8-9.7-78.1-36.4-97.7-49.8-2.3-1.6-4.6-2.9-5.2-2.9-.6 0-1.1-.5-1.1-1 0-.6-.5-1-1-1-.6 0-3.2-1.5-5.8-3.3-2.6-1.9-8.5-6-13.2-9.2-4.7-3.2-11.7-8.2-15.6-11.2-4-2.9-7.4-5.3-7.6-5.3-.3 0 6.1 6.7 14.1 14.9 13.2 13.4 57.3 58.7 71.1 73.1 10.8 11.2 56.7 58.5 66.3 68.4 5.4 5.6 17.6 18.2 27.2 28.1 9.5 9.9 21 21.8 25.6 26.5 4.5 4.7 18.4 19 30.8 31.9 12.4 12.8 26.2 27 30.6 31.6 4.4 4.5 17.7 18.2 29.5 30.4 35 36.3 59.1 60.5 65.4 65.7 3.2 2.7 6.4 5.4 7 5.9.6.6 3.1 2.6 5.6 4.5 2.5 1.9 4.7 3.7 5 4 .6.7 22.2 17.5 26 20.3 1.4.9 5.7 4 9.5 6.8 41.1 30 94.6 60.3 138.5 78.6 4.7 1.9 9.6 4 11 4.6 1.4.5 3.2 1.1 4.1 1.3.8.2 2.9 1 4.5 1.9 1.6.8 3.3 1.5 3.7 1.5.5 0 2.3.6 4 1.4 1.8.7 6.1 2.4 9.7 3.6 3.6 1.2 7.2 2.5 8 2.8.8.3 1.7.6 2 .7.3 0 3.4 1 7 2.2 16.3 5.2 49.9 14.2 59.3 15.8 1.8.3 4.8 1 6.7 1.5 1.9.5 5.5 1.2 8 1.5 2.5.4 6.8 1.1 9.5 1.6 2.8.6 6.8 1.2 9 1.5 2.2.3 5.1.7 6.5 1 1.4.3 4.5.8 7 1.1 2.5.2 5.6.6 7 .9 1.4.2 5.9.7 10 1 4.1.3 8.6.8 10 1 14.4 2.4 80.6 2.4 102.5 0 1.7-.2 6.2-.7 10-1 3.9-.3 8.1-.8 9.5-1.1 1.4-.2 4.8-.7 7.5-1 7.5-.8 11.8-1.5 14.5-2.1 1.4-.3 3.9-.7 5.5-.9 1.7-.2 3.9-.6 5-.8 1.1-.3 4-.8 6.5-1.2 5.6-.9 6.4-1.1 12.5-2.5 2.8-.7 6.2-1.4 7.6-1.6 1.4-.3 10.1-2.5 19.5-4.9 9.3-2.5 17.9-4.7 19-5 3.9-.9 35.8-11.7 44.9-15.2 30.8-11.8 64.1-27.6 89.5-42.3 6.9-4 13.4-7.8 14.5-8.4 6.9-4 37.6-24.2 41.5-27.3.8-.7 7.4-5.6 14.5-10.9 7.2-5.4 13.9-10.5 15-11.5 1.1-1 5.2-4.4 9-7.6 3.9-3.2 7.5-6.2 8.1-6.8.6-.5 4.4-3.9 8.5-7.5 13.1-11.7 26.7-25 42.9-42 1.9-2 6.1-6.5 9.2-10.1 3.1-3.5 7.1-8 8.8-9.9 1.7-1.9 4.8-5.6 6.8-8.2 2-2.7 4-4.8 4.4-4.8.4 0 .8-.5.8-1 0-.6 1-2.2 2.3-3.5 2.7-2.9 2.7-2.9 10.2-13 3.2-4.4 6.2-8.2 6.5-8.5.3-.3 1.4-1.8 2.5-3.4 1.1-1.6 2.7-3.9 3.5-5.1 14.6-21.3 19.1-28.3 26.7-41 4.9-8.3 10.4-17.9 12.3-21.5 1.9-3.6 4-7.3 4.8-8.3.9-.9 1.2-1.7.8-1.7-.3 0 .4-1.7 1.7-3.7 2-3.4 7.9-15 8.2-16.3.1-.3 1.8-4 3.8-8.4 2-4.3 4.9-10.6 6.3-14 1.5-3.3 3.3-7.6 4.1-9.3 4.5-10.3 16.9-45 19.3-53.8.4-1.7 2.4-8.9 4.4-16 3.1-11.2 8.1-31.9 10.1-42 1.2-6.4 1.5-8.2 2.5-13.7 2.4-13.6 4.1-25.3 3.9-26.4-.1-.5 0-1.1.1-1.4.4-1.2.9-4.8 1.4-11.4.4-3.9.8-8.2 1.1-9.6 2.5-12.9 2.5-83.9 0-103.5-.6-4.9-1.8-15.9-1.8-17.3 0-.6-.3-1.2-.6-1.2s-.6-1.7-.7-3.8c-.2-6.9-3.4-27.9-6.1-39.2-.3-1.4-.7-3.4-.9-4.5-.6-4.2-4.5-20.5-8.9-37.5-2.6-9.9-12.1-39.5-14.6-45.5-.7-1.7-1.3-3.7-1.5-4.5-.2-.8-1.5-4.4-2.9-8-1.5-3.6-3.6-8.8-4.7-11.5-1.1-2.8-2.7-6.6-3.5-8.5-.8-1.9-1.9-4.4-2.3-5.5-4.5-10.6-19.3-41-25.8-53-5.7-10.5-17.5-30.9-18.2-31.5-.5-.5-5.8-9-7-11.5-1.2-2.5-10.6-16-11.2-16.3-.5-.2-.8-1-.8-1.8s-.4-1.4-1-1.4c-.5 0-1-.6-1-1.4 0-.8-.3-1.6-.7-1.8-.5-.2-2.3-2.6-4.2-5.3-8.1-11.8-32.7-44.1-36.4-48-.6-.7-2.5-2.9-4.2-5-1.6-2.1-3.4-4.3-4-4.9-.5-.6-3.2-3.8-6-7.1-7.9-9.4-21.1-22.9-99.1-100.9-85-84.9-163.6-162.6-228.4-225.6-13.8-13.5-30.9-30.1-38-37-11.9-11.6-43.1-41.7-57.4-55.4-10.2-9.8-51.8-49.9-55.1-53.1-6.6-6.6-6.6-5.4.2 1.6zM1179 2780.9c0 1 1.9 2.5 2.5 2 .1-.2-.3-1-1.1-1.7s-1.4-.8-1.4-.3z"/></svg>